<svg width="172" height="59" viewBox="0 0 172 59" fill="none" xmlns="http://www.w3.org/2000/svg">
<g clip-path="url(#clip0_352_11250)">
<mask id="mask0_352_11250" style="mask-type:luminance" maskUnits="userSpaceOnUse" x="126" y="0" width="28" height="17">
<path d="M129.8 0.5077H129.821H129.779H129.8ZM136.924 0.0131517C134.522 -0.00503019 132.124 0.162942 129.748 0.515592H129.707H129.761C127.06 1.04171 126.48 2.55954 126.48 2.55954C125.779 3.98794 127.119 7.88119 129.818 12.49C133.226 12.0111 136.664 11.7965 140.103 11.8481C145.039 11.9612 147.897 12.582 149.157 13.3554C150.416 14.1288 150.035 15.6098 149.882 16.0149C150.803 14.3603 152.763 10.446 153.342 8.07848C153.921 5.71097 153.425 4.67189 153.319 4.4141C152.964 3.51899 152.315 2.77547 151.482 2.30964C148.798 0.954896 144.468 0.431413 141.639 0.205185C140.173 0.0701482 138.661 0.00175371 137.102 0L136.924 0.0131517Z" fill="white"/>
</mask>
<g mask="url(#mask0_352_11250)">
<path d="M153.938 -0.0693359L125.741 0.00541355L125.782 16.0807L153.979 16.006L153.938 -0.0693359Z" fill="url(#paint0_linear_352_11250)"/>
</g>
<mask id="mask1_352_11250" style="mask-type:luminance" maskUnits="userSpaceOnUse" x="116" y="0" width="39" height="39">
<path d="M129.778 0.513672C129.751 0.516559 129.725 0.520952 129.7 0.526826C122.101 1.57905 118.789 3.94657 117.49 5.2487C117.015 5.74386 116.643 6.32954 116.394 6.9717C116.145 7.61386 116.025 8.29971 116.04 8.98937C116.139 11.9646 117.926 16.0919 118.742 17.7649C120.139 20.5499 121.745 23.2224 123.545 25.7593C125.337 28.2396 127.345 30.5516 129.546 32.6671C131.365 34.3586 133.864 36.513 135.919 37.5889C136.756 37.9936 137.671 38.2056 138.6 38.2098C139.95 38.1569 141.239 37.621 142.237 36.6972C144.164 34.9321 146.051 31.557 147.365 29.3158C149.375 25.8776 151.036 21.8265 151.853 19.6352C152.473 17.9991 154.191 12.9405 154.68 9.2498C154.874 7.86723 154.694 6.45752 154.16 5.16979C153.9 4.53711 153.532 3.9557 153.072 3.45202C152.625 2.97334 152.09 2.58814 151.496 2.31824C152.329 2.78407 152.978 3.52759 153.333 4.4227C153.439 4.68576 153.94 5.7222 153.355 8.08708C152.771 10.452 150.825 14.3452 149.898 16.0104V16.0262C149.672 16.4339 144.351 25.9171 141.801 25.8882C139.249 25.8592 133.659 18.3016 132.287 16.3208C131.378 15.0186 130.557 13.735 129.835 12.4986C127.138 7.89505 125.798 4.0018 126.499 2.57341C126.499 2.57341 127.081 1.03716 129.796 0.529457L129.778 0.513672ZM129.814 0.513672H129.796C129.803 0.515304 129.811 0.515304 129.819 0.513672H129.814Z" fill="white"/>
</mask>
<g mask="url(#mask1_352_11250)">
<path d="M131.957 -18.9219L97.626 22.7294L138.928 57.6369L173.259 15.9856L131.957 -18.9219Z" fill="url(#paint1_linear_352_11250)"/>
</g>
<path d="M26.0637 43.1377L22.0164 43.1508V58.7791H26.0637V43.1377Z" fill="#034C2D"/>
<path d="M48.7406 58.5847C48.1504 58.3796 47.6418 57.9865 47.2909 57.4641C46.6337 56.4119 46.5766 55.1439 46.561 53.4787V46.8497H44.0645V43.1406H46.5714V39.3525H50.6136V43.1406H54.3259V46.8471H50.6031V53.9364C50.5925 54.2561 50.6134 54.576 50.6655 54.8914C50.7045 55.086 50.7409 55.1228 50.7512 55.1228C50.7883 55.1598 50.8371 55.1822 50.889 55.186C51.1248 55.2404 51.3668 55.2626 51.6085 55.2517C51.9415 55.2383 52.273 55.2014 52.6009 55.1412C52.9516 55.0861 53.2374 55.0282 53.2374 55.0282L53.9804 54.8677L54.383 58.2453L53.8452 58.44C52.9012 58.7245 51.9231 58.8767 50.9383 58.8925C50.1934 58.9191 49.4498 58.8141 48.7406 58.5821" fill="#034C2D"/>
<path d="M62.7305 58.9948C61.7064 59.0174 60.684 58.8997 59.6911 58.6449C58.8348 58.4206 58.0597 57.9533 57.4569 57.298C56.2723 55.9696 55.8982 53.9598 55.8982 50.9847C55.8982 48.7382 56.1268 47.0599 56.7243 45.7761C57.0088 45.1673 57.4235 44.6303 57.9384 44.2039C58.4535 43.7776 59.0556 43.4727 59.7014 43.3114C60.6934 43.0516 61.7168 42.9366 62.7408 42.9693C64.4027 42.9928 66.0573 43.1956 67.6767 43.5743L68.2846 43.719L67.7651 47.4018L67.0298 47.2361C67.0298 47.2361 66.9259 47.2177 66.7389 47.1677C66.5518 47.1178 66.2609 47.0914 65.9258 47.0441C65.0849 46.9244 64.237 46.8612 63.3877 46.8547C62.6652 46.8268 61.9421 46.894 61.2368 47.0547C61.0642 47.0931 60.9012 47.1669 60.7579 47.2715C60.6145 47.3759 60.4937 47.509 60.4028 47.6622C60.2522 47.9588 60.1521 48.279 60.1067 48.6093C60.0124 49.3947 59.9715 50.1857 59.9845 50.9768C59.9582 51.835 60.013 52.6938 60.1482 53.5416C60.2781 54.144 60.4547 54.4465 60.686 54.6544C60.8986 54.8236 61.1465 54.9413 61.4108 54.999C62.061 55.1327 62.7247 55.1874 63.3877 55.1621C64.5077 55.1444 65.6239 55.0265 66.7233 54.8095C66.8242 54.7997 66.9242 54.7812 67.022 54.7543L67.7651 54.5885L68.2846 58.153L67.7287 58.3424C67.6767 58.3608 65.8036 58.9975 62.733 58.9975" fill="#034C2D"/>
<path d="M107.558 46.2899C107.299 45.1061 106.725 44.1486 105.769 43.6278C104.813 43.107 103.644 42.9596 102.152 42.9596C101.243 42.9596 100.292 43.0595 100.274 43.0595L100.087 43.0649L98.2114 44.5432C98.1907 44.5668 98.1724 44.5668 98.144 44.5958C97.6079 44.0011 96.9452 43.5377 96.2059 43.2411C95.4841 43.0107 94.7277 42.9119 93.9717 42.949H93.8523C93.2352 42.9531 92.6187 42.9891 92.0053 43.057L91.8649 43.0753L90.2543 44.3354C90.1894 44.3775 90.1478 44.4117 90.1011 44.4353C90.084 44.4459 90.0648 44.4522 90.0448 44.4535C90.0249 44.455 90.005 44.4516 89.9867 44.4436C89.9683 44.4356 89.9522 44.4232 89.9396 44.4077C89.9269 44.392 89.918 44.3736 89.914 44.3538L89.7763 43.1279H86.3992V58.7693H90.4752V47.0106C91.2532 46.874 92.0416 46.8053 92.8313 46.8055C93.2926 46.791 93.7542 46.8174 94.2108 46.8845C94.3734 46.9256 94.5311 46.9846 94.681 47.0607C94.8428 47.2238 94.9515 47.433 94.9927 47.6604C95.0996 48.2193 95.1466 48.7882 95.133 49.3571V58.7904H99.1753V48.2786C99.1792 47.8366 99.1348 47.3955 99.0428 46.9633C99.8486 46.8643 100.66 46.8151 101.472 46.8161C101.932 46.7997 102.392 46.8323 102.846 46.9133C103.012 46.9428 103.171 46.9996 103.319 47.0817C103.493 47.2291 103.609 47.4358 103.644 47.6631C103.747 48.2285 103.79 48.8034 103.773 49.3781V58.7773H107.803V49.1152C107.828 48.1705 107.746 47.2261 107.558 46.3004" fill="#034C2D"/>
<path d="M40.1425 43.7097C39.0202 43.1388 37.6253 42.96 35.8224 42.96C34.3363 42.96 33.0505 43.0915 31.9646 43.5387C31.4074 43.7591 30.9014 44.0941 30.4784 44.5224C30.0554 44.9507 29.7247 45.463 29.507 46.0272C29.0291 47.2847 28.7952 49.0945 28.79 50.9754C28.7573 52.3195 28.9193 53.6614 29.2707 54.958C29.7304 56.5706 30.6449 57.6754 31.8684 58.2593C33.092 58.8433 34.5105 58.9827 36.1445 58.9959C37.9404 59.0006 39.7257 58.7164 41.4336 58.1541L41.9739 57.9595L41.4155 54.4529L40.7037 54.5897C39.1943 54.9028 37.9708 55.1659 36.4146 55.1659C35.845 55.1783 35.2752 55.1457 34.7104 55.0685C34.2319 55.0027 33.791 54.7702 33.4636 54.4108C33.0842 53.9321 32.8919 52.9983 32.8946 52.1354V51.796C32.9102 51.7566 32.9258 51.7197 32.9621 51.7145V51.6934V51.7066C32.9923 51.7028 33.0228 51.7028 33.053 51.7066C33.1102 51.7329 33.1596 51.7645 33.2193 51.7987L33.9727 52.5353L34.1 52.6431L34.2558 52.672C35.236 52.8291 36.2279 52.896 37.22 52.872C39.2722 52.8509 41.0439 52.6562 41.8648 52.6247L42.4988 52.6063L42.53 51.9723C42.5871 50.949 42.6157 50.4465 42.6157 49.8994C42.6443 48.8133 42.537 47.7278 42.2962 46.6691C41.9739 45.3196 41.257 44.27 40.1425 43.7097ZM36.7368 49.1733H35.0091C34.4741 49.1733 33.7103 49.155 32.9621 49.0813C32.9907 48.6104 33.0219 48.2395 33.0686 47.9397C33.0979 47.7072 33.1721 47.4829 33.2869 47.2793C33.4038 47.09 33.5051 46.9899 33.9233 46.869C34.59 46.7153 35.2744 46.6542 35.9574 46.6874C36.4394 46.6719 36.9218 46.7071 37.3966 46.7927C37.5803 46.8273 37.7562 46.895 37.9162 46.9926C38.1311 47.1857 38.2718 47.4493 38.3137 47.7371C38.4141 48.1906 38.4671 48.6535 38.4721 49.1181C37.872 49.1708 37.2382 49.1733 36.7316 49.1733" fill="#034C2D"/>
<path d="M83.0458 45.1504C82.8047 44.7168 82.4806 44.3361 82.0925 44.0308C81.7044 43.7255 81.2602 43.5015 80.7857 43.3721C79.8037 43.0617 78.6138 42.9591 77.1123 42.9591C75.9931 42.9261 74.8742 43.0294 73.7793 43.267C73.1293 43.4217 72.5215 43.721 71.9997 44.1429C71.2542 44.7664 70.8152 45.6687 70.5787 46.7918C70.3424 47.9151 70.267 49.2621 70.267 50.9745C70.2374 52.2488 70.3174 53.5233 70.506 54.7835C70.6068 55.4883 70.8358 56.168 71.1815 56.7881C71.4239 57.2221 71.749 57.6032 72.1379 57.9093C72.5266 58.2154 72.9715 58.4406 73.4468 58.5716C74.4288 58.8899 75.6108 58.9846 77.1123 58.9951C78.2359 59.0201 79.3587 58.9142 80.4584 58.6794C81.1101 58.5236 81.7169 58.2156 82.2301 57.7798C82.9731 57.1669 83.4121 56.2672 83.6484 55.1492C83.8848 54.0313 83.9472 52.6739 83.9472 50.9639C83.9742 49.6875 83.8985 48.411 83.7213 47.147C83.6208 46.4415 83.3918 45.7608 83.0458 45.1398M79.7595 53.5577C79.7293 53.8995 79.6515 54.2351 79.5284 54.5548C79.4807 54.6859 79.4011 54.8028 79.2972 54.8947C79.1932 54.9867 79.0681 55.0506 78.9334 55.0808C78.3375 55.2201 77.7257 55.2759 77.1149 55.2465C76.5508 55.2699 75.9858 55.2267 75.4315 55.1177C75.2372 55.0817 75.0569 54.9906 74.9119 54.8546C74.7587 54.7047 74.5976 54.4022 74.5015 53.7603C74.4009 52.8309 74.3592 51.896 74.3768 50.9614C74.3625 50.0992 74.3946 49.2369 74.4729 48.3781C74.5064 48.037 74.584 47.7018 74.7042 47.3812C74.7554 47.2499 74.8376 47.1334 74.9436 47.0417C75.0495 46.9499 75.176 46.8858 75.3121 46.855C75.9063 46.7056 76.5189 46.6453 77.1304 46.6761C77.6964 46.6549 78.2628 46.6981 78.8191 46.8051C79.0125 46.8439 79.192 46.9346 79.3386 47.0681C79.492 47.2207 79.6451 47.5153 79.7361 48.1598C79.8423 49.0914 79.8839 50.0292 79.8608 50.9666C79.8608 52.0768 79.8322 52.9316 79.7698 53.5499" fill="#034C2D"/>
<path d="M154.381 46.2902C154.122 45.1065 153.526 44.1489 152.576 43.6281C151.625 43.1073 150.464 42.96 148.955 42.96C148.393 42.96 147.316 43.0863 147.302 43.0863L147.113 43.1073L145.504 44.3647C145.44 44.4041 145.398 44.441 145.354 44.47C145.336 44.4783 145.319 44.483 145.3 44.4839C145.281 44.4848 145.262 44.4819 145.244 44.4753C145.226 44.4686 145.21 44.4584 145.197 44.4453C145.183 44.4321 145.172 44.4165 145.164 44.3989L145.029 43.1388H141.613V58.7803H145.657V47.0374C146.522 46.8856 147.396 46.8046 148.274 46.7954C148.735 46.7814 149.197 46.8078 149.654 46.8742C149.816 46.911 149.974 46.9702 150.121 47.0505C150.295 47.2056 150.409 47.4181 150.443 47.6503C150.55 48.209 150.594 48.7782 150.576 49.347V58.7803H154.642V49.1155C154.659 48.1714 154.58 47.2278 154.403 46.3008" fill="#034C2D"/>
<path d="M171.024 57.9368C171.001 57.9102 170.976 57.8857 170.949 57.863C170.929 57.8447 170.915 57.8236 170.891 57.8184C166.325 53.733 165.098 50.3187 165.098 50.3187L167.787 47.2355L170.384 44.2315L171.707 42.7294L170.726 42.7505H166.938L161.763 48.5535C161.671 48.6621 161.571 48.7624 161.462 48.8533C161.353 48.9166 161.227 48.9406 161.103 48.9219V36.9922H157.045V58.7812H161.103V51.8602C161.103 51.8602 161.407 51.8312 161.513 51.9864C161.513 51.9864 163.695 56.3611 166.771 58.7522H170.461V58.7812H172.001C171.658 58.497 171.322 58.1972 171.024 57.9368Z" fill="#034C2D"/>
<path d="M138.712 45.524C138.423 44.8262 137.919 44.2414 137.275 43.8562C136.132 43.1511 134.603 42.9591 132.646 42.9591C130.628 42.9386 128.617 43.2042 126.671 43.7484L126.097 43.9219L126.69 47.5811L127.445 47.3916C127.445 47.3916 127.586 47.3601 127.838 47.2943C129.287 46.9568 130.767 46.7733 132.254 46.7472C133.33 46.7472 134.073 46.8262 134.416 47.0103C134.638 47.097 134.823 47.2624 134.935 47.4758C135.052 47.7801 135.108 48.1044 135.101 48.4307L130.565 48.4755C129.784 48.4666 129.005 48.5612 128.248 48.7569C127.781 48.8641 127.341 49.0708 126.958 49.3634C126.576 49.6559 126.259 50.0276 126.03 50.4536C125.588 51.3165 125.45 52.3476 125.44 53.6735C125.416 54.4987 125.508 55.3234 125.713 56.1225C125.834 56.6261 126.068 57.0946 126.396 57.4923C126.725 57.8899 127.139 58.206 127.607 58.4164C128.557 58.8451 129.737 58.9767 131.269 58.9846C132.212 58.9846 133.369 58.8505 133.369 58.8505L133.595 58.8215L135.207 57.5746C135.257 57.5314 135.311 57.4919 135.366 57.4562C135.383 57.4484 135.401 57.4443 135.42 57.4437C135.437 57.4433 135.456 57.4467 135.472 57.4535C135.49 57.4604 135.506 57.4707 135.518 57.4838C135.531 57.497 135.541 57.5127 135.549 57.5298L135.678 58.7688H139.157V48.1361C139.188 47.2449 139.041 46.3566 138.725 45.524M135.101 54.7835C133.926 55.0274 132.731 55.1682 131.532 55.2044C131.153 55.2113 130.775 55.1902 130.399 55.1413C130.24 55.1277 130.084 55.0933 129.934 55.0387C129.821 54.9832 129.729 54.8905 129.674 54.7757C129.56 54.4286 129.51 54.0628 129.529 53.6971C129.512 53.2997 129.562 52.9024 129.674 52.5213C129.702 52.4305 129.75 52.3476 129.815 52.2792C129.989 52.191 130.179 52.1383 130.373 52.1241C130.695 52.1241 131.153 52.1241 131.708 52.1241L135.085 52.0426L135.101 54.7835Z" fill="#034C2D"/>
<path d="M120.472 43.4029C119.553 43.0833 118.585 42.9327 117.614 42.9584C117.232 42.9665 116.851 43.0025 116.474 43.0662C116.357 43.1031 116.248 43.1163 116.167 43.1373L114.608 44.4026C114.556 44.438 114.5 44.4687 114.442 44.4946C114.338 44.5525 114.281 44.4946 114.273 44.4341V36.9922H110.241V57.9368L110.712 58.0946C112.56 58.6886 114.488 58.9921 116.427 58.9944C117.596 59.0288 118.763 58.8906 119.892 58.5839C120.559 58.4083 121.176 58.0769 121.694 57.6164C122.212 57.1561 122.616 56.5793 122.875 55.9324C123.42 54.6459 123.55 53.015 123.55 50.9158C123.55 48.2722 123.322 46.344 122.404 44.9313C121.931 44.2358 121.255 43.7063 120.472 43.4161M119.329 53.3229C119.29 53.6687 119.203 54.0071 119.069 54.3277C119.013 54.4719 118.928 54.6023 118.818 54.7099C118.708 54.8176 118.577 54.8999 118.432 54.9511C117.928 55.1091 117.401 55.1776 116.874 55.1537C116.138 55.1501 115.404 55.0955 114.676 54.9905C114.557 54.9722 114.44 54.945 114.325 54.909V47.1094C115.192 46.8921 116.08 46.7704 116.972 46.7464C117.441 46.7265 117.909 46.7887 118.357 46.9305C118.549 46.9848 118.722 47.0912 118.858 47.2383C119.109 47.5772 119.269 47.9758 119.323 48.3958C119.515 50.0312 119.521 51.6836 119.339 53.3202" fill="#034C2D"/>
<path d="M7.0687 58.4406L7.10507 58.4959L7.16742 58.5223C8.20693 58.7438 9.2667 58.8531 10.329 58.8484C11.3427 58.8551 12.3538 58.7438 13.3425 58.5169L13.4152 58.5038L13.4489 58.4354C16.9428 53.0597 19.251 46.9846 20.2163 40.6238C20.3965 39.48 20.5127 38.327 20.5645 37.1699L15.761 37.8828C15.4052 40.5133 14.1219 48.0893 10.529 54.2739L10.3809 54.537L10.2355 54.2739C8.16261 50.6078 6.63096 46.6543 5.68925 42.5389C5.32816 40.9868 5.01381 38.8561 4.87613 37.8591L0 37.1935C0.0129892 38.0669 0.353306 48.0105 7.0687 58.4354" fill="#034C2D"/>
</g>
<defs>
<linearGradient id="paint0_linear_352_11250" x1="123.372" y1="11.7956" x2="150.659" y2="11.7251" gradientUnits="userSpaceOnUse">
<stop stop-color="#034C2D"/>
<stop offset="0.26" stop-color="#286A31"/>
<stop offset="0.84" stop-color="#87B73D"/>
<stop offset="0.91" stop-color="#92C03E"/>
<stop offset="1" stop-color="#92C03E"/>
</linearGradient>
<linearGradient id="paint1_linear_352_11250" x1="118.523" y1="4.53858" x2="148.804" y2="29.4973" gradientUnits="userSpaceOnUse">
<stop stop-color="#92C03E"/>
<stop offset="0.1" stop-color="#92C03E"/>
<stop offset="0.46" stop-color="#548E37"/>
<stop offset="0.82" stop-color="#1A5F30"/>
<stop offset="1" stop-color="#034C2D"/>
</linearGradient>
<clipPath id="clip0_352_11250">
<rect width="172" height="59" fill="white"/>
</clipPath>
</defs>
</svg>
