<svg width="200" height="46" viewBox="0 0 200 46" fill="none" xmlns="http://www.w3.org/2000/svg">
<g clip-path="url(#clip0_352_11284)">
<path d="M14.9824 0.00364917C14.5879 0.0238355 14.2487 0.224267 14.2487 0.635865V14.036C14.2487 14.036 14.2966 16.201 16.2166 18.3661C18.1366 20.5312 25.9004 29.4774 25.9004 29.4774V11.9465L16.0483 0.453443C15.8265 0.14364 15.3768 -0.0165117 14.9824 0.00364917ZM38.2186 0.0261577C37.871 0.0368591 37.4675 0.224125 37.1317 0.596356L27.3601 11.9525V29.4774L37.5404 17.6714C37.5404 17.6714 39.0203 15.7516 39.0203 13.5048V0.841197C39.0203 0.29012 38.6655 0.0123895 38.2186 0.0261577ZM0.906906 16.3265C0.0089256 16.3265 -0.370898 17.4549 0.492535 18.3298C0.492535 18.3298 16.8287 37.36 20.1098 41.09C23.3909 44.8201 25.9004 44.7086 25.9004 44.7086V31.9032C25.9004 31.9032 19.6953 24.5119 16.2416 20.5056C12.7878 16.4992 7.67646 16.3265 7.67646 16.3265H0.906906ZM45.5841 16.3265C45.5841 16.3265 40.4727 16.4992 37.019 20.5056C33.5652 24.5119 27.3601 31.9032 27.3601 31.9032V44.7086C27.3601 44.7086 29.8693 44.8201 33.1503 41.09C36.4314 37.36 52.768 18.3298 52.768 18.3298C53.6314 17.4549 53.2516 16.3265 52.3536 16.3265H45.5841ZM191.506 24.3834C191.506 24.3834 189.083 24.3835 187.435 26.3219L182.216 32.2587V38.922C182.216 38.922 183.146 39.2856 184.042 38.4617L195.372 25.3897C195.807 24.9089 195.661 24.3834 195.054 24.3834H191.506Z" fill="#E00500"/>
<path d="M59.926 16.3262L69.5406 44.7083H76.4981L86.0285 16.3262H79.9138L72.9984 37.9206L66.0404 16.3262H59.926ZM88.5163 16.3262V44.7083H93.9562V35.2641H99.8177C99.8177 35.2641 103.362 35.2638 106.31 32.2697C107.646 30.9134 108.631 29.1354 108.631 26.0289C108.631 18.2275 101.041 16.3262 99.3538 16.3262H93.9562H89.697H88.5163ZM111.246 16.3262V44.7083H114.83H116.938H123.601C123.601 44.7083 127.43 44.7083 129.738 42.2869C130.934 41.0314 132.119 39.2309 132.119 36.4025C132.035 35.6856 132.161 31.511 128.408 29.9929C128.408 29.9929 132.667 26.8762 130.559 21.6014C128.45 16.3265 122.757 16.3262 122.757 16.3262H116.938H114.577H111.246ZM177.161 16.3262V44.7083H182.216V16.3262H177.161ZM197.253 16.3728C196.525 16.3729 195.826 16.6624 195.311 17.1776C194.796 17.6927 194.507 18.3914 194.507 19.12C194.507 19.8485 194.796 20.5472 195.311 21.0624C195.826 21.5775 196.525 21.867 197.253 21.8671C197.614 21.8671 197.971 21.7961 198.304 21.658C198.637 21.52 198.94 21.3176 199.195 21.0625C199.45 20.8074 199.653 20.5046 199.791 20.1713C199.929 19.838 200 19.4807 200 19.12C200 18.7592 199.929 18.402 199.791 18.0687C199.653 17.7354 199.45 17.4325 199.195 17.1774C198.94 16.9223 198.637 16.72 198.304 16.5819C197.971 16.4439 197.614 16.3728 197.253 16.3728ZM197.237 16.9934C197.514 16.9934 197.788 17.048 198.044 17.154C198.3 17.26 198.532 17.4155 198.728 17.6114C198.924 17.8073 199.08 18.04 199.186 18.296C199.292 18.552 199.346 18.8264 199.346 19.1035C199.346 19.3806 199.292 19.6549 199.186 19.911C199.08 20.167 198.924 20.3996 198.728 20.5955C198.533 20.7915 198.3 20.9469 198.044 21.0529C197.788 21.159 197.514 21.2135 197.237 21.2135C196.677 21.2134 196.141 20.9911 195.745 20.5954C195.35 20.1997 195.127 19.663 195.127 19.1035C195.127 18.5439 195.35 18.0073 195.745 17.6116C196.141 17.2159 196.677 16.9935 197.237 16.9934ZM196.163 17.7376V20.5749H196.825V19.515H197.016L197.714 20.5749H198.451L197.705 19.515C197.705 19.515 198.372 19.5152 198.361 18.6686C198.349 17.7378 197.453 17.7376 197.453 17.7376H196.163ZM196.825 18.3545H197.335C197.335 18.3545 197.643 18.3599 197.649 18.6404C197.655 18.9207 197.369 18.921 197.369 18.921H196.825V18.3545ZM93.9562 21.6013H99.4802C99.4802 21.6013 103.149 21.7681 103.149 25.9447C103.149 30.1194 99.3538 30.1193 99.3538 30.1193H93.9562V21.6013ZM116.938 21.6013H122.504C122.504 21.6013 125.372 21.7699 125.372 24.8482C125.372 27.9265 122.42 27.9263 122.42 27.9263H116.938V21.6013ZM167.924 23.7662C164.43 23.7662 162.57 25.3968 161.602 26.856V24.4684H156.637V44.7082H161.602V33.4362C161.602 33.4362 161.689 28.558 166.192 28.5291C170.695 28.5003 170.233 33.725 170.233 33.725V44.7082H175.256V31.6467C175.256 31.6467 175.342 27.8771 172.633 25.5851C171.567 24.6831 169.995 23.7662 167.924 23.7662ZM142.94 23.8237C140.363 23.8238 137.893 24.9552 136.071 26.969C134.249 28.9828 133.226 31.7142 133.226 34.5622C133.226 37.4101 134.249 40.1415 136.071 42.1553C137.893 44.1692 140.363 45.3005 142.94 45.3006C145.388 45.2932 147.744 44.2637 149.536 42.4182V44.7082H154.732V24.4684H149.536V26.7062C147.744 24.8606 145.388 23.8311 142.94 23.8237ZM143.936 28.6068C144.718 28.6068 145.492 28.7598 146.215 29.0569C146.937 29.354 147.594 29.7895 148.147 30.3385C148.7 30.8875 149.138 31.5393 149.438 32.2566C149.737 32.9739 149.891 33.7427 149.891 34.5191C149.891 36.087 149.263 37.5907 148.146 38.6994C147.03 39.8081 145.515 40.4309 143.936 40.4309C142.356 40.4308 140.842 39.8079 139.725 38.6993C138.608 37.5906 137.981 36.0869 137.981 34.5191C137.981 32.9511 138.608 31.4474 139.725 30.3386C140.841 29.2299 142.356 28.6069 143.936 28.6068ZM116.938 32.6494H123.896C123.896 32.6494 126.511 32.6072 126.511 36.065C126.511 39.5228 123.432 39.5229 123.432 39.5229H116.938V32.6494ZM187.756 35.0313C187.635 35.0266 187.501 35.0692 187.362 35.1904L185.69 37.0318C185.69 37.0318 184.722 38.3374 186.368 40.3516L189.93 44.7082H195.698L188.38 35.4811C188.38 35.4811 188.121 35.0449 187.756 35.0313Z" fill="#00B74F"/>
</g>
<defs>
<clipPath id="clip0_352_11284">
<rect width="200" height="45.3258" fill="white"/>
</clipPath>
</defs>
</svg>
