<svg width="48" height="48" viewBox="0 0 48 48" fill="none" xmlns="http://www.w3.org/2000/svg">
<path d="M16 14H8C6.89544 14 6 14.8954 6 16V20H18V16C18 14.8954 17.1046 14 16 14Z" fill="#FFC94E"/>
<path d="M42 27.472V35.9998C42 39.771 42 41.6566 40.8284 42.8282C39.6568 43.9998 37.7712 43.9998 34 43.9998H18V26.9998L24.6334 23.683C26.8348 22.5824 27.9356 22.032 28.7884 22.3978C28.9706 22.476 29.14 22.5808 29.2914 22.7088C30 23.308 30 24.5386 30 26.9998L36.2112 23.8942C38.8056 22.597 40.103 21.9484 41.0514 22.5346C42 23.1208 42 24.5712 42 27.472Z" fill="#FFC94E"/>
<path d="M18 27V18C18 16.1144 18 15.1716 17.4142 14.5858C16.8284 14 15.8856 14 14 14H10C8.11438 14 7.17158 14 6.58578 14.5858C6 15.1716 6 16.1144 6 18V36C6 39.7712 6 41.6568 7.17158 42.8284C8.34314 44 10.2288 44 14 44H18M18 27L24.6334 23.6832C26.8348 22.5826 27.9356 22.0322 28.7884 22.398C28.9706 22.4762 29.14 22.581 29.2914 22.709C30 23.3082 30 24.5388 30 27L36.2112 23.8944C38.8056 22.5972 40.103 21.9486 41.0514 22.5348C42 23.121 42 24.5714 42 27.4722V36C42 39.7712 42 41.6568 40.8284 42.8284C39.6568 44 37.7712 44 34 44H18M18 27V44" stroke="#1F7A5A" stroke-width="3" stroke-linecap="round" stroke-linejoin="round"/>
<path d="M6 20H18" stroke="#1F7A5A" stroke-width="3" stroke-linecap="round" stroke-linejoin="round"/>
<path d="M26 4H16C14.1144 4 13.1716 4 12.5858 4.58578C12 5.17158 12 6.11438 12 8" stroke="#1F7A5A" stroke-width="3" stroke-linecap="round" stroke-linejoin="round"/>
<path d="M32 4H34" stroke="#1F7A5A" stroke-width="3" stroke-linecap="round" stroke-linejoin="round"/>
<path d="M22 10H34" stroke="#1F7A5A" stroke-width="3" stroke-linecap="round" stroke-linejoin="round"/>
</svg>
